Simulation
nRows=44
nColumns=15
endheader
time  TH_x TH_y TH_z SC_y  SC_z  SC_x  AC_y  AC_z  AC_x  GH_y  GH_z  GH_yy  EL_x  PS_y
0.0  0.000000  0.000000  0.000000  -21.481837363305974  5.049547332879065  0.3347068766571287  51.34548281287631  7.510987189984201  0.07237665173124617  166.62346768642934  2.0040888035526154  -123.45301241910148  20.898354575283836  120.000000
0.05362  0.000000  0.000000  0.000000  -21.215904931156032  5.197509170098901  -0.44258977936460536  51.23120813275967  7.66860363306167  0.6240678443483233  -50.32785339104826  0.4372548882924331  92.51438805621866  20.23671608416023  120.000000
0.10724  0.000000  0.000000  0.000000  -21.069041765125696  5.341351773611365  -1.166096396207123  51.09654203298141  7.7468722077712595  1.1477584321123933  -22.94054163293323  2.6686812981663777  64.02972558861542  19.566575777339768  120.000000
0.16086  0.000000  0.000000  0.000000  -21.13031186714851  5.51837565868688  -1.8445792705664015  50.930602780779225  7.790541596315899  1.6234544869868404  -19.352085336683285  4.854449178817945  59.113661671469465  18.86151606627964  120.000000
0.21448  0.000000  0.000000  0.000000  -21.45843628574943  5.759329284140836  -2.455157555243811  50.72050224103456  7.8606892825172245  2.051932310057044  -17.09824715559164  6.969424190147719  55.22376956113352  18.109550041737027  120.000000
0.2681  0.000000  0.000000  0.000000  -22.063193064830397  6.083258634284384  -2.9499019182236847  50.46913728160556  8.021568124749063  2.44051004676673  -15.360277645976533  9.060611976379127  51.5205674212359  17.310289503633893  120.000000
0.32172  0.000000  0.000000  0.000000  -22.92653372080903  6.504835389681187  -3.27898566338794  50.19009435412166  8.31271031599321  2.7972627529032983  -14.034582609074816  11.181559233379465  47.92505948324011  16.477327848451303  120.000000
0.37534  0.000000  0.000000  0.000000  -24.013411490801715  7.02650294947692  -3.4026330300409233  49.897152683192544  8.73792030748513  3.1268867643804286  -13.146212026670664  13.382147024890356  44.51837069967878  15.630415708749828  120.000000
0.42896  0.000000  0.000000  0.000000  -25.284826438649567  7.641689550206492  -3.2945493349951795  49.59898600401906  9.26458428506664  3.430581625673255  -12.707533718025733  15.700744470489663  41.38716402756133  14.79391116963927  120.000000
0.48258  0.000000  0.000000  0.000000  -26.69494448641633  8.333901112562287  -2.945505487111346  49.30440228179285  9.836732930798282  3.705467703020063  -12.691052352698515  18.161005408502785  38.59107124723852  13.991216791880552  120.000000
0.5362  0.000000  0.000000  0.000000  -28.196499176274735  9.081386150935476  -2.363687165804008  49.02387047908402  10.391166394409687  3.9495781763582256  -13.009056661907234  20.77041997598463  36.13197029346683  13.241680528140154  120.000000
0.58982  0.000000  0.000000  0.000000  -29.739834106588543  9.858363971654402  -1.5745651278305655  48.772941992472376  10.8741273027618  4.164127070311975  -13.534495421339413  23.521459123115672  33.96605461715385  12.55734497955342  120.000000
0.64344  0.000000  0.000000  0.000000  -31.280544062067943  10.641239603949224  -0.6161130103436645  48.57005211819182  11.248783064961897  4.354182726553984  -14.122916221538174  26.393030178356042  32.0133039533935  11.943860971124405  120.000000
0.69706  0.000000  0.000000  0.000000  -32.78233166175088  11.409452804602525  0.4685905131368305  48.43300495706632  11.498793808885027  4.527157082429272  -14.645057672920512  29.35326201964096  30.18158975038013  11.39772476165513  120.000000
0.75068  0.000000  0.000000  0.000000  -34.220840468197736  12.147505001987941  1.6347706422572619  48.375271699398134  11.630903099393903  4.694055792738021  -15.000990180719809  32.36170993306399  28.375650429179277  10.904606187454807  120.000000
0.8043  0.000000  0.000000  0.000000  -35.58093462243857  12.842508199507849  2.8486705410061153  48.40373781589502  11.66834646871908  4.8656890738797225  -15.13187636187591  35.37563657107805  26.513759792140437  10.43878442650931  120.000000
0.85792  0.000000  0.000000  0.000000  -36.85312234639035  13.485218847157887  4.0910770003741135  48.51803328487539  11.643410668809915  5.048858527644741  -15.022009868283003  38.35376175844882  24.541786995421464  9.970215780709859  120.000000
0.91154  0.000000  0.000000  0.000000  -38.02818773908263  14.066673630923864  5.353898237124727  48.708165090374074  11.588285348381465  5.2450792698882704  -14.699097667616337  41.259238319960566  22.449730355687105  9.4753708988905  120.000000
0.96516  0.000000  0.000000  0.000000  -39.095366811860536  14.580391947054329  6.627826695971223  48.95399179176886  11.529962232046  5.450425049433242  -14.226077432896014  44.05821954935341  20.27668898546964  8.949865609728196  120.000000
1.01878  0.000000  0.000000  0.000000  -40.04253034089996  15.022270682391811  7.895245042485939  49.22644298895832  11.486520835454153  5.6572345699054765  -13.68624921261593  46.71935443698225  18.103719845688648  8.41204460954878  120.000000
1.0724  0.000000  0.000000  0.000000  -40.86079616231641  15.391844978834406  9.126981838526303  49.493182203516895  11.466098819040893  5.856364712495932  -13.16314022870531  49.210897164387625  16.032306759011973  7.896309510192698  120.000000
1.12602  0.000000  0.000000  0.000000  -41.54768656719439  15.692304914154585  10.2875791322425  49.727638995803694  11.465404300994106  6.036791094766215  -12.72247813650743  51.50105333403935  14.160560471990882  7.441042321352238  120.000000
1.17964  0.000000  0.000000  0.000000  -42.11042278674934  15.930291061142052  11.343917161667632  49.915166770375926  11.46998823559647  6.185853460917784  -12.4024924838766  53.55977576195934  12.56491247279618  7.07904831233139  120.000000
1.23326  0.000000  0.000000  0.000000  -42.562838873861395  16.11518313952547  12.265277739364274  50.055801955084064  11.459412915401384  6.291132172342997  -12.214491456698564  55.36071301432299  11.292800828954745  6.832470991545315  120.000000
1.28688  0.000000  0.000000  0.000000  -42.92139910557096  16.256904443716852  13.026618870995645  50.15812563627588  11.413514135723803  6.345798694507143  -12.149103583861548  56.88401906501078  10.36196299944778  6.7131182429503164  120.000000
1.3405  0.000000  0.000000  0.000000  -43.201470413047744  16.36690404639534  13.612713563376628  50.23287203104233  11.319255516974563  6.348811770769898  -12.185397609562841  58.1214354369342  9.762756396310918  6.7199659972123005  120.000000
1.39412  0.000000  0.000000  0.000000  -43.4171742675361  16.45521273493937  14.025703234055237  50.28663614867546  11.176740894007898  6.306812181001665  -12.297772055504385  59.08035586556183  9.459452562499528  6.833346263638208  120.000000
1.44774  0.000000  0.000000  0.000000  -43.58055215006241  16.52847484855127  14.288489110853403  50.32094157458297  11.00167728721063  6.232816802933641  -12.460594719973843  59.783857029547235  9.393885444032497  7.0102466034492785  120.000000
1.50136  0.000000  0.000000  0.000000  -43.7017998046751  16.589430875275884  14.440841973484682  50.33393680498964  10.820867101306243  6.14194457198359  -12.649903493258783  60.26668118474663  9.494987149906894  7.191264611099828  120.000000
1.55498  0.000000  0.000000  0.000000  -43.787907797745675  16.637526035573437  14.528626603689725  50.32261541905364  10.662815824746486  6.047321384310007  -12.843032227983919  60.56565401325067  9.692581322911492  7.316927280115946  120.000000
1.6086  0.000000  0.000000  0.000000  -43.841561924518494  16.670818687115442  14.590165000715475  50.286327289313704  10.546915193958512  5.95500063707082  -13.016350611086235  60.7085937875253  9.92983091196739  7.348618965451354  120.000000
1.66222  0.000000  0.000000  0.000000  -43.8588056147131  16.686153483789287  14.647730824823388  50.22779367877546  10.476567463662603  5.863164747850528  -13.144369557779523  60.70342934555716  10.170218344624619  7.282031870235134  120.000000
1.71584  0.000000  0.000000  0.000000  -43.82749242385274  16.678532563214485  14.705008123471195  50.15412954468361  10.439922138971536  5.76252634544599  -13.201177580229952  60.52966560566004  10.394210383018693  7.146078040173333  120.000000
1.76946  0.000000  0.000000  0.000000  -43.72708307795616  16.639933482534417  14.75045661557144  50.07690756187742  10.415653138883203  5.638723632849879  -13.164504130373746  60.133788982771314  10.589086674612515  6.9903515092203445  120.000000
1.82308  0.000000  0.000000  0.000000  -43.53230717550969  16.5582983147631  14.76260860647894  50.01119115187835  10.379868075909867  5.475556978272568  -13.020844840573691  59.42932951868744  10.738245652191482  6.8741460084168295  120.000000
1.8767  0.000000  0.000000  0.000000  -43.21915101071562  16.4188618878988  14.712700636356582  49.974013308260645  10.309953681841415  5.256513871811987  -12.76944594499961  58.304442737968095  10.817693257537092  6.859771536590472  120.000000
1.93032  0.000000  0.000000  0.000000  -42.7705057869099  16.205424927890206  14.566682777785068  49.97894832476018  10.18618541194885  4.967968160136493  -12.421630780984632  56.63951166032272  10.802853095309784  7.007075051326019  120.000000
1.98394  0.000000  0.000000  0.000000  -42.176724277476346  15.904454030404777  14.284393664063145  50.030758424974515  9.992420552208682  4.599613545187473  -11.994253546855179  54.33382035193697  10.68706422178151  7.361754360348077  120.000000
2.03756  0.000000  0.000000  0.000000  -41.43035819494575  15.506794842668437  13.82256578261073  50.11905228797335  9.717329893741049  4.1498483800590655  -11.499303523776003  51.33729912557864  10.505275210635265  7.93392667533505  120.000000
2.09118  0.000000  0.000000  0.000000  -40.51890675370004  15.010136338537576  13.139485463008292  50.21841134860311  9.359460929785829  3.630744496992749  -10.938857666550618  47.67693833161554  10.355321953193739  8.674224099300295  120.000000
2.1448  0.000000  0.000000  0.000000  -39.4205151870587  14.41810525132427  12.207497562903109  50.29694020566644  8.92971215532849  3.069781450797843  -10.312714121340099  43.465625987724536  10.401969889635  9.470846768255013  120.000000
2.19842  0.000000  0.000000  0.000000  -38.1086512534834  13.736673750853729  11.025924877672107  50.329533835037644  8.448350135939373  2.506428971097061  -9.640673976885516  38.882591346697396  10.862471933611808  10.182055321010493  120.000000
2.25204  0.000000  0.000000  0.000000  -36.56543708992231  12.972737187819744  9.624127200139664  50.308715605416225  7.943614147939698  1.987168679381469  -8.990065674132818  34.13767807383127  11.97873164401727  10.695551378177267  120.000000
2.30566  0.000000  0.000000  0.000000  -34.79772053431465  12.13679716087914  8.057923272044512  50.247686092259514  7.4505966704071405  1.558213381553213  -8.494370736712957  29.439164589244797  13.985548433971173  10.9900245696905  120.000000
